Coordinates
version=1
nRows=5
nColumns=40
inDegrees=yes

Units are S.I. units (second, meters, Newtons, ...)
Angles are in degrees.

endheader
time	pelvis_tilt	pelvis_list	pelvis_rotation	pelvis_tx	pelvis_ty	pelvis_tz	hip_flexion_r	hip_adduction_r	hip_rotation_r	knee_angle_r	knee_angle_r_beta	ankle_angle_r	subtalar_angle_r	mtp_angle_r	hip_flexion_l	hip_adduction_l	hip_rotation_l	knee_angle_l	knee_angle_l_beta	ankle_angle_l	subtalar_angle_l	mtp_angle_l	lumbar_extension	lumbar_bending	lumbar_rotation	arm_flex_r	arm_add_r	arm_rot_r	elbow_flex_r	pro_sup_r	wrist_flex_r	wrist_dev_r	arm_flex_l	arm_add_l	arm_rot_l	elbow_flex_l	pro_sup_l	wrist_flex_l	wrist_dev_l
      3.23750000	     -1.70793463	     -5.24980669	     -0.64830676	      0.93305629	      0.91597007	      0.55753843	     13.77703341	      6.87101513	     -8.96923947	     27.84730454	     27.84730454	     16.73919762	    -12.26517141	     -1.50812143	     28.07639225	    -12.21781019	      2.34826717	     62.06679075	     62.06679075	     18.41209577	    -19.64468154	     23.94857654	    -11.76932564	      6.09113266	     -0.46646595	     11.69984419	    -15.70209402	    -15.19467053	     44.23495114	     45.69169090	      0.00000000	      0.00000000	     13.97321913	     -9.08073160	     -2.03357665	     32.34720139	     46.47851670	      0.00000000	      0.00000000
      3.25700000	     -1.47704065	     -5.24039391	      0.08687008	      0.93206007	      0.91454600	      0.55825360	     13.58319657	      6.90209637	     -9.18489525	     28.55304138	     28.55304138	     17.40996304	    -13.01125012	     -1.14699805	     29.16621499	    -12.02902214	      2.36041681	     60.34736321	     60.34736321	     18.57683356	    -19.63539842	     23.87237147	    -11.88284821	      5.78299587	     -0.66156947	     13.69273227	    -15.43003081	    -14.68175844	     46.67234496	     45.58798279	      0.00000000	      0.00000000	     12.09823379	     -8.50443939	     -1.23505361	     29.44661377	     46.33430716	      0.00000000	      0.00000000
      3.27650000	     -1.29942234	     -5.17905098	      0.79120131	      0.93104211	      0.91348294	      0.55872242	     13.33733986	      6.84745912	     -9.47221217	     29.07386516	     29.07386516	     17.99725325	    -13.53676273	     -0.84333899	     30.10195331	    -11.72852819	      2.31264692	     58.17609303	     58.17609303	     18.48812869	    -19.61987242	     23.64884934	    -11.98125639	      5.45268172	     -0.64628034	     15.68617874	    -15.25463716	    -14.19103606	     49.21484888	     45.48418909	      0.00000000	      0.00000000	     10.15689342	     -7.96572383	     -0.54518087	     27.07371398	     46.19697880	      0.00000000	      0.00000000
      3.29600000	     -1.23424590	     -5.14872261	      1.45844839	      0.92999479	      0.91276472	      0.55891979	     13.07715887	      6.81687061	     -9.80166260	     29.35871220	     29.35871220	     18.80665249	    -13.65601800	      0.36695336	     30.97580695	    -11.37996478	      2.32764668	     55.64962891	     55.64962891	     17.89355422	    -19.58430029	     22.65608832	    -12.03287648	      5.21393247	      0.26641052	     16.34510143	    -16.11823716	    -12.65954626	     54.16160260	     45.26600942	      0.00000000	      0.00000000	      8.87925011	     -7.31614633	      1.69231907	     24.01627984	     45.79030522	      0.00000000	      0.00000000
      3.31550000	     -1.23153010	     -4.98248731	      2.12704913	      0.92898711	      0.91265273	      0.55877446	     12.68239696	      6.63275791	    -10.14743912	     29.25617246	     29.25617246	     19.08681442	    -13.87229921	      0.41330090	     31.66181293	    -10.74920759	      2.44209852	     52.76807334	     52.76807334	     17.34080388	    -19.52240203	     22.51939064	    -11.97608817	      4.79526588	      0.18887577	     18.73293651	    -15.84935906	    -12.70937539	     56.35826551	     45.20577214	      0.00000000	      0.00000000	      6.48267673	     -7.00190033	      2.03731565	     22.88255771	     45.68181608	      0.00000000	      0.00000000
